<svg width="24" height="23" viewBox="0 0 24 23" fill="none" xmlns="http://www.w3.org/2000/svg">
<path d="M20 9.58333V6.70833C20 5.64979 19.1046 4.79167 18 4.79167H6C4.89543 4.79167 4 5.64979 4 6.70833V9.58333M20 9.58333V18.2083C20 19.2669 19.1046 20.125 18 20.125H6C4.89543 20.125 4 19.2669 4 18.2083V9.58333M20 9.58333H4M8 2.875V6.70833M16 2.875V6.70833" stroke="#F84610" stroke-width="2" stroke-linecap="round"/>
<path d="M8.5 11.5H6.5C6.22386 11.5 6 11.7145 6 11.9792V13.8958C6 14.1605 6.22386 14.375 6.5 14.375H8.5C8.77614 14.375 9 14.1605 9 13.8958V11.9792C9 11.7145 8.77614 11.5 8.5 11.5Z" fill="#F84610"/>
<path d="M13 11.5H11C10.7239 11.5 10.5 11.7145 10.5 11.9792V13.8958C10.5 14.1605 10.7239 14.375 11 14.375H13C13.2761 14.375 13.5 14.1605 13.5 13.8958V11.9792C13.5 11.7145 13.2761 11.5 13 11.5Z" fill="#F84610"/>
<path d="M17.5 11.5H15.5C15.2239 11.5 15 11.7145 15 11.9792V13.8958C15 14.1605 15.2239 14.375 15.5 14.375H17.5C17.7761 14.375 18 14.1605 18 13.8958V11.9792C18 11.7145 17.7761 11.5 17.5 11.5Z" fill="#F84610"/>
</svg>
